    <!-- Generated by IcoMoon.io -->
<svg version="1.1" xmlns="http://www.w3.org/2000/svg" width="1024" height="1024" viewBox="0 0 1024 1024">
<title></title>
<g id="icomoon-ignore">
</g>
<path fill="#005288" d="M1021.952 297.173c-0.213-0.085-0.384-0.256-0.597-0.256-0.384 0-0.683 0.256-0.981 0.384-645.461 64.981-948.864 345.685-1020.373 414.72l9.515 14.933h112.811c293.205-294.741 689.323-392.576 898.773-424.789l0.256 0.085c0.171 0 0.256-0.171 0.427-0.171 1.237-0.256 2.219-1.195 2.219-2.517 0-1.237-0.896-2.091-2.048-2.389zM16.213 448.341l-6.827 12.885 138.453 100.949c21.152-12.734 49.268-27.979 77.962-42.237l7.883-3.544-92.885-68.053zM323.925 582.4c-22.869 16.853-46.251 34.901-71.424 56.021l121.685 88.661h126.165l5.248-11.648z"></path>
</svg>
